<svg xmlns="http://www.w3.org/2000/svg" width="56.93" height="56.93" viewBox="0 0 56.93 56.93">
  <path id="Subtraction_3" data-name="Subtraction 3" d="M-1961.535,56.93a28.287,28.287,0,0,1-11.08-2.237,28.372,28.372,0,0,1-9.048-6.1,28.37,28.37,0,0,1-6.1-9.048A28.287,28.287,0,0,1-1990,28.465a28.288,28.288,0,0,1,2.237-11.08,28.37,28.37,0,0,1,6.1-9.048,28.37,28.37,0,0,1,9.048-6.1A28.288,28.288,0,0,1-1961.535,0a28.287,28.287,0,0,1,11.08,2.237,28.371,28.371,0,0,1,9.048,6.1,28.373,28.373,0,0,1,6.1,9.048,28.288,28.288,0,0,1,2.237,11.08,28.287,28.287,0,0,1-2.237,11.08,28.374,28.374,0,0,1-6.1,9.048,28.373,28.373,0,0,1-9.048,6.1A28.286,28.286,0,0,1-1961.535,56.93Zm10.19-34.058a8.055,8.055,0,0,0-3.33.65,8.177,8.177,0,0,0-2.6,1.791,8.184,8.184,0,0,0-1.68,2.685,9.087,9.087,0,0,0-.6,3.345,9.893,9.893,0,0,0,.559,3.4,7.693,7.693,0,0,0,1.615,2.655,7.377,7.377,0,0,0,2.58,1.71,9.176,9.176,0,0,0,3.408.6,8.255,8.255,0,0,0,4.62-1.245,7.3,7.3,0,0,0,2.85-4.126h-3.883a2.752,2.752,0,0,1-1.17,1.41,3.936,3.936,0,0,1-2.3.671,3.938,3.938,0,0,1-2.819-.944l.067-.025a4.527,4.527,0,0,1-1.065-3.1h11.534a12.027,12.027,0,0,0-.315-3.57,8.392,8.392,0,0,0-1.409-3.03,7.224,7.224,0,0,0-2.49-2.1A7.573,7.573,0,0,0-1951.345,22.873Zm-28.183-5.646V39.355h10.757a10.966,10.966,0,0,0,2.865-.382,7.611,7.611,0,0,0,2.506-1.15,5.568,5.568,0,0,0,1.74-2.025,6.171,6.171,0,0,0,.615-2.9,6.178,6.178,0,0,0-1-3.54,5.31,5.31,0,0,0-3.033-2.055,5.471,5.471,0,0,0,2.253-1.831,4.9,4.9,0,0,0,.76-2.79,6,6,0,0,0-.509-2.595,4.25,4.25,0,0,0-1.44-1.68,6.445,6.445,0,0,0-2.228-.914,13.256,13.256,0,0,0-2.88-.283v.011ZM-1956.1,18.7v2.181h8.952V18.7Zm-13.377,16.855h-5.19V29.48h5.264a4.158,4.158,0,0,1,2.534.72,2.915,2.915,0,0,1,.96,2.43,3.055,3.055,0,0,1-.285,1.44,2.212,2.212,0,0,1-.779.875,3.47,3.47,0,0,1-1.145.45,6.343,6.343,0,0,1-1.359.14v.02Zm21.418-5.952h-7.142a5.263,5.263,0,0,1,.2-1.066,3.105,3.105,0,0,1,.588-1.125,3.235,3.235,0,0,1,1.11-.885,3.714,3.714,0,0,1,1.75-.357,3.3,3.3,0,0,1,2.485.888l-.006.013h0l0,0v.014l0-.009a4.291,4.291,0,0,1,1.016,2.528Zm-21.688-3.465h-4.935V20.978h4.543a6.55,6.55,0,0,1,1.26.112,3.176,3.176,0,0,1,1.08.385,2.189,2.189,0,0,1,.75.768,2.824,2.824,0,0,1,.27,1.269,2.318,2.318,0,0,1-.831,2.007,3.508,3.508,0,0,1-2.138.618h0Z" transform="translate(1990)" fill="#fff"/>
</svg>
