<svg xmlns="http://www.w3.org/2000/svg" width="56.93" height="56.93" viewBox="0 0 56.93 56.93">
  <path id="Subtraction_1" data-name="Subtraction 1" d="M-1961.535,56.93a28.287,28.287,0,0,1-11.08-2.237,28.372,28.372,0,0,1-9.048-6.1,28.37,28.37,0,0,1-6.1-9.048A28.287,28.287,0,0,1-1990,28.465a28.288,28.288,0,0,1,2.237-11.08,28.37,28.37,0,0,1,6.1-9.048,28.37,28.37,0,0,1,9.048-6.1A28.288,28.288,0,0,1-1961.535,0a28.287,28.287,0,0,1,11.08,2.237,28.371,28.371,0,0,1,9.048,6.1,28.373,28.373,0,0,1,6.1,9.048,28.288,28.288,0,0,1,2.237,11.08,28.287,28.287,0,0,1-2.237,11.08,28.374,28.374,0,0,1-6.1,9.048,28.373,28.373,0,0,1-9.048,6.1A28.286,28.286,0,0,1-1961.535,56.93Zm-18.511-38.286a.177.177,0,0,0-.177.181v19.7a2.878,2.878,0,0,0,2.875,2.875h31.625a2.878,2.878,0,0,0,2.875-2.875v-19.7a.178.178,0,0,0-.181-.177.175.175,0,0,0-.125.051l-9.667,9.847a.177.177,0,0,0-.054.126.177.177,0,0,0,.054.126l6.765,7.205a1.171,1.171,0,0,1,0,1.653,1.177,1.177,0,0,1-.826.342,1.178,1.178,0,0,1-.827-.342l-6.738-7.178a.183.183,0,0,0-.13-.054.183.183,0,0,0-.13.054l-1.644,1.671a7.247,7.247,0,0,1-5.157,2.174h-.032a7.427,7.427,0,0,1-5.233-2.237l-1.581-1.608a.183.183,0,0,0-.13-.054.181.181,0,0,0-.13.054l-6.738,7.178a1.178,1.178,0,0,1-.827.342,1.173,1.173,0,0,1-.826-.342,1.171,1.171,0,0,1,0-1.653l6.765-7.205a.191.191,0,0,0,0-.251l-9.677-9.847A.178.178,0,0,0-1980.045,18.644Zm2.689-3.116a2.823,2.823,0,0,0-1.778.629l14.1,14.348a4.872,4.872,0,0,0,3.5,1.473,4.884,4.884,0,0,0,3.513-1.473l14.1-14.348a2.824,2.824,0,0,0-1.779-.629Z" transform="translate(1990)" fill="#fff"/>
</svg>
