<svg xmlns="http://www.w3.org/2000/svg" width="56.93" height="56.93" viewBox="0 0 56.93 56.93">
  <path id="Subtraction_4" data-name="Subtraction 4" d="M-1960.958,68.767c0,.235-.264.424-.6.424-.379.035-.642-.153-.642-.424,0-.235.264-.424.6-.424C-1961.257,68.308-1960.958,68.5-1960.958,68.767Zm-3.57-.53c-.08.235.149.506.494.577a.532.532,0,0,0,.711-.235c.069-.235-.149-.506-.493-.612A.583.583,0,0,0-1964.528,68.237Zm5.073-.2c-.333.082-.562.306-.528.577.035.235.333.388.677.306s.563-.306.528-.542S-1959.122,68-1959.455,68.037Zm7.552-45.11c-15.92,0-28.1,12.4-28.1,28.724,0,13.055,8.011,24.227,19.455,28.159,1.469.271,1.986-.659,1.986-1.424,0-.73-.035-4.756-.035-7.228,0,0-8.035,1.766-9.722-3.508,0,0-1.309-3.426-3.191-4.309,0,0-2.628-1.848.184-1.813a6.034,6.034,0,0,1,4.43,3.037c2.514,4.544,6.726,3.237,8.367,2.46a6.608,6.608,0,0,1,1.836-3.967c-6.416-.73-12.89-1.683-12.89-13.008a9.039,9.039,0,0,1,2.709-6.934,11.39,11.39,0,0,1,.3-7.993c2.4-.765,7.92,3.178,7.92,3.178a26.335,26.335,0,0,1,7.208-1,26.335,26.335,0,0,1,7.208,1s5.521-3.955,7.92-3.178a11.383,11.383,0,0,1,.3,7.993c1.836,2.084,2.961,3.708,2.961,6.934,0,11.36-6.76,12.266-13.176,13.008,1.056.93,1.951,2.7,1.951,5.462,0,3.967-.035,8.876-.035,9.841,0,.765.528,1.7,1.986,1.424,11.478-3.908,19.26-15.08,19.26-28.135A28.488,28.488,0,0,0-1951.9,22.927Zm-16.941,40.6c-.149.118-.115.388.08.612.184.188.448.271.6.118.149-.118.115-.388-.08-.612C-1968.43,63.458-1968.694,63.375-1968.843,63.528Zm-1.24-.954c-.08.153.035.341.264.459a.337.337,0,0,0,.494-.082c.08-.153-.035-.341-.264-.459C-1969.819,62.422-1970,62.457-1970.083,62.575Zm3.719,4.191c-.184.153-.115.506.149.73.264.271.6.306.746.118.149-.153.08-.506-.149-.73C-1965.871,66.613-1966.215,66.577-1966.364,66.766Zm-1.308-1.73c-.184.118-.184.424,0,.695s.493.388.643.271a.547.547,0,0,0,0-.73C-1967.191,65-1967.489,64.882-1967.673,65.035Z" transform="translate(1980 -22.927)" fill="#fff"/>
</svg>
