<svg xmlns="http://www.w3.org/2000/svg" width="30" height="30" viewBox="0 0 30 30">
  <path id="Subtraction_4" data-name="Subtraction 4" d="M10.034,24.156c0,.124-.139.223-.315.223-.2.019-.339-.081-.339-.223,0-.124.139-.223.314-.223C9.877,23.914,10.034,24.013,10.034,24.156Zm-1.881-.279c-.042.124.079.267.26.3a.28.28,0,0,0,.375-.124c.036-.124-.079-.267-.26-.323A.307.307,0,0,0,8.153,23.877Zm2.673-.105c-.175.043-.3.161-.278.3.018.124.175.2.357.161s.3-.161.278-.285S11,23.753,10.827,23.771ZM14.806,0C6.417,0,0,6.532,0,15.136A15.53,15.53,0,0,0,10.252,29.975c.774.143,1.046-.347,1.046-.751,0-.385-.018-2.506-.018-3.809,0,0-4.234.931-5.123-1.849,0,0-.69-1.805-1.682-2.27,0,0-1.385-.974.1-.955a3.18,3.18,0,0,1,2.335,1.6,3.153,3.153,0,0,0,4.409,1.3,3.482,3.482,0,0,1,.968-2.091c-3.381-.385-6.792-.887-6.792-6.855a4.763,4.763,0,0,1,1.427-3.654,6,6,0,0,1,.157-4.212C8.341,6.024,11.25,8.1,11.25,8.1a13.945,13.945,0,0,1,7.6,0s2.909-2.084,4.173-1.675a6,6,0,0,1,.157,4.212,4.878,4.878,0,0,1,1.56,3.654c0,5.986-3.562,6.464-6.943,6.855a3.719,3.719,0,0,1,1.028,2.878c0,2.091-.018,4.677-.018,5.186,0,.4.278.893,1.046.751A15.39,15.39,0,0,0,30,15.136,15.012,15.012,0,0,0,14.806,0ZM5.879,21.4c-.079.062-.061.2.042.323.1.1.236.143.315.062.079-.062.061-.2-.042-.323C6.1,21.358,5.958,21.315,5.879,21.4Zm-.653-.5c-.042.081.018.18.139.242a.177.177,0,0,0,.26-.043c.042-.081-.018-.18-.139-.242C5.365,20.812,5.268,20.831,5.226,20.893ZM7.185,23.1c-.1.081-.06.267.079.385.139.143.314.161.393.062.079-.081.042-.267-.079-.385C7.446,23.021,7.264,23,7.185,23.1ZM6.5,22.19c-.1.062-.1.223,0,.366s.26.2.339.143a.288.288,0,0,0,0-.385C6.75,22.171,6.593,22.109,6.5,22.19Z" transform="translate(0 0)"/>
</svg>
