<svg xmlns="http://www.w3.org/2000/svg" width="59" height="59" viewBox="0 0 59 59">
  <path id="Subtraction_2" data-name="Subtraction 2" d="M-1960.5,59a29.315,29.315,0,0,1-11.483-2.318,29.4,29.4,0,0,1-9.377-6.322,29.4,29.4,0,0,1-6.322-9.377A29.317,29.317,0,0,1-1990,29.5a29.318,29.318,0,0,1,2.318-11.483,29.4,29.4,0,0,1,6.322-9.377,29.4,29.4,0,0,1,9.377-6.322A29.316,29.316,0,0,1-1960.5,0a29.313,29.313,0,0,1,11.482,2.318,29.4,29.4,0,0,1,9.377,6.322,29.406,29.406,0,0,1,6.322,9.377A29.317,29.317,0,0,1-1931,29.5a29.316,29.316,0,0,1-2.318,11.483,29.406,29.406,0,0,1-6.322,9.377,29.4,29.4,0,0,1-9.377,6.322A29.312,29.312,0,0,1-1960.5,59Zm5.54-29.566c3.217,0,3.217,3.057,3.217,5.288v9.7h6.193V33.492c0-4.936-.9-9.5-7.433-9.5a6.553,6.553,0,0,0-5.866,3.218h-.084V24.483h-5.941V44.422h6.192V34.555C-1958.682,32.023-1958.24,29.434-1954.96,29.434Zm-20-4.952V44.422h6.2V24.483Zm3.1-9.9a3.594,3.594,0,0,0-3.59,3.59,3.6,3.6,0,0,0,3.59,3.591,3.6,3.6,0,0,0,3.591-3.591A3.6,3.6,0,0,0-1971.859,14.578Z" transform="translate(1990)" fill="#fff"/>
</svg>
